# xmcd
#
# Track frame offsets:
#	182
#	13022
#	25120
#	38572
#	50920
#	62642
#	75575
#	87520
#	100517
#	111927
#	124685
#	136257
#	149060
#	161000
#	173015
#	186342
#
# Disc length: 2626 seconds
#
# Revision: 0
# Processed by: cddbd v1.4b42PL1 Copyright (c) Steve Scherf et al.
# Submitted via: audiograbber 1.80
#
DISCID=d60a4010
DTITLE=Dinah Washington - The Complete Vol.3
DYEAR=1900
DGENRE=
TTITLE0=Mean and evil blues
TTITLE1=Since I feel for you
TTITLE2=West side baby
TTITLE3=You can depend on me
TTITLE4=Early in the morning
TTITLE5=I'm afraid of you
TTITLE6=I love you, yes i do
TTITLE7=Don't come knocking at my door
TTITLE8=I wish i knew the name of the boy
TTITLE9=No more lonely gal blues
TTITLE10=Walkin' and talkin'
TTITLE11=Ain't misbehavin'
TTITLE12=What can I say after i say i'm sorry 
TTITLE13=Tell me so
TTITLE14=I can't face the music
TTITLE15=Pete
EXTD=
EXTT0=
EXTT1=
EXTT2=
EXTT3=
EXTT4=
EXTT5=
EXTT6=
EXTT7=
EXTT8=
EXTT9=
EXTT10=
EXTT11=
EXTT12=
EXTT13=
EXTT14=
EXTT15=
PLAYORDER=
